<svg xmlns="http://www.w3.org/2000/svg" viewBox="0 0 24 24" fill="none" stroke="#ffffff" stroke-width="2" stroke-linecap="round" stroke-linejoin="round">
  <path d="M9.5 2a2.5 2.5 0 1 1 0 5 2.5 2.5 0 0 1 0-5z"/>
  <path d="M14.5 2a2.5 2.5 0 1 0 0 5 2.5 2.5 0 0 0 0-5z"/>
  <path d="M8 17a5 5 0 0 1-5-5c0-1.43.584-2.721 1.525-3.657A5 5 0 0 1 8 7h8a5 5 0 0 1 3.475 1.343A5 5 0 0 1 21 12a5 5 0 0 1-5 5H8z"/>
  <path d="M3 12a9 9 0 0 0 9 9 9 9 0 0 0 9-9"/>
  <path d="M14.5 17a2.5 2.5 0 0 0 0-5 2.5 2.5 0 0 0 0 5z"/>
  <path d="M9.5 17a2.5 2.5 0 0 0 0-5 2.5 2.5 0 0 0 0 5z"/>
</svg>