<?xml version="1.0" encoding="UTF-8"?>
<svg width="900" height="1200" viewBox="0 0 900 1200" version="1.1" xmlns="http://www.w3.org/2000/svg">
    <title>QuantumLayer Platform: System Architecture</title>
    <defs>
        <!-- Gradients -->
        <linearGradient x1="0%" y1="0%" x2="100%" y2="100%" id="titleGradient">
            <stop stop-color="#5B4D8D" offset="0%"></stop>
            <stop stop-color="#7A6BA5" offset="100%"></stop>
        </linearGradient>
        <linearGradient x1="0%" y1="0%" x2="100%" y2="100%" id="userLayerGradient">
            <stop stop-color="#4F4670" offset="0%"></stop>
            <stop stop-color="#605986" offset="100%"></stop>
        </linearGradient>
        <linearGradient x1="0%" y1="0%" x2="100%" y2="100%" id="apiLayerGradient">
            <stop stop-color="#446278" offset="0%"></stop>
            <stop stop-color="#5E8094" offset="100%"></stop>
        </linearGradient>
        <linearGradient x1="0%" y1="0%" x2="100%" y2="100%" id="coreLayerGradient">
            <stop stop-color="#546F8D" offset="0%"></stop>
            <stop stop-color="#7691AD" offset="100%"></stop>
        </linearGradient>
        <linearGradient x1="0%" y1="0%" x2="100%" y2="100%" id="spawningLayerGradient">
            <stop stop-color="#647B95" offset="0%"></stop>
            <stop stop-color="#8CA2B9" offset="100%"></stop>
        </linearGradient>
        <linearGradient x1="0%" y1="0%" x2="100%" y2="100%" id="orchestrationLayerGradient">
            <stop stop-color="#4A4E64" offset="0%"></stop>
            <stop stop-color="#626784" offset="100%"></stop>
        </linearGradient>
        <linearGradient x1="0%" y1="0%" x2="100%" y2="100%" id="footerGradient">
            <stop stop-color="#41425A" offset="0%"></stop>
            <stop stop-color="#53547A" offset="100%"></stop>
        </linearGradient>
        
        <!-- Shadows -->
        <filter id="boxShadow" x="-10%" y="-10%" width="120%" height="120%">
            <feDropShadow dx="0" dy="4" stdDeviation="8" flood-color="#000000" flood-opacity="0.25"/>
        </filter>
        <filter id="boxShadowSmall" x="-10%" y="-10%" width="120%" height="120%">
            <feDropShadow dx="0" dy="3" stdDeviation="4" flood-color="#000000" flood-opacity="0.2"/>
        </filter>
        
        <!-- Arrow marker -->
        <marker id="arrowhead" markerWidth="10" markerHeight="7" refX="10" refY="3.5" orient="auto">
            <polygon points="0 0, 10 3.5, 0 7" fill="rgba(255,255,255,0.7)" />
        </marker>
    </defs>
    
    <g stroke="none" stroke-width="1" fill="none" fill-rule="evenodd">
        <!-- Background -->
        <rect width="900" height="1200" fill="#2D2D42" />
        
        <!-- Dark gradient background -->
        <path d="M0,0 L900,0 L900,1200 L0,1200 Z" fill="url(#titleGradient)" opacity="0.1" />
        
        <!-- Title Box -->
        <g transform="translate(100, 80)">
            <rect x="0" y="0" width="700" height="120" rx="30" fill="url(#titleGradient)" filter="url(#boxShadow)"/>
            <text font-family="Arial, sans-serif" font-size="38" font-weight="bold" fill="#FFFFFF" x="350" y="75" text-anchor="middle">QuantumLayer Platform:</text>
            <text font-family="Arial, sans-serif" font-size="38" font-weight="bold" fill="#FFFFFF" x="350" y="120" text-anchor="middle">System Architecture</text>
        </g>
        
        <!-- User Layer -->
        <g transform="translate(125, 250)">
            <rect x="0" y="0" width="650" height="120" rx="20" fill="url(#userLayerGradient)" filter="url(#boxShadow)"/>
            
            <!-- User Component -->
            <g transform="translate(75, 35)">
                <rect x="0" y="0" width="120" height="50" rx="25" fill="#FFFFFF" filter="url(#boxShadowSmall)"/>
                <g transform="translate(25, 25)">
                    <circle cx="0" cy="0" r="15" fill="#4F4670"/>
                    <path d="M0,-8 C4,-8 7,-4 7,0 C7,4 4,8 0,8 C-4,8 -7,4 -7,0 C-7,-4 -4,-8 0,-8 M0,10 C6,10 12,14 12,19 L-12,19 C-12,14 -6,10 0,10" fill="#4F4670"/>
                </g>
                <text font-family="Arial, sans-serif" font-size="18" font-weight="bold" fill="#333342" x="65" y="32" text-anchor="middle">User</text>
            </g>
            
            <!-- CLI Component -->
            <g transform="translate(265, 35)">
                <rect x="0" y="0" width="120" height="50" rx="25" fill="#FFFFFF" filter="url(#boxShadowSmall)"/>
                <text font-family="Arial, sans-serif" font-size="18" font-weight="bold" fill="#333342" x="60" y="32" text-anchor="middle">CLI</text>
            </g>
            
            <!-- All Primitives Component -->
            <g transform="translate(455, 35)">
                <rect x="0" y="0" width="120" height="50" rx="25" fill="#FFFFFF" filter="url(#boxShadowSmall)"/>
                <text font-family="Arial, sans-serif" font-size="18" font-weight="bold" fill="#333342" x="60" y="32" text-anchor="middle">All Primitives</text>
            </g>
        </g>
        
        <!-- Connecting Arrow -->
        <g transform="translate(450, 370)">
            <line x1="0" y1="0" x2="0" y2="60" stroke="rgba(255,255,255,0.7)" stroke-width="3" marker-end="url(#arrowhead)"/>
        </g>
        
        <!-- API Gateway -->
        <g transform="translate(250, 450)">
            <rect x="0" y="0" width="400" height="80" rx="20" fill="url(#apiLayerGradient)" filter="url(#boxShadow)"/>
            
            <!-- Gear Icon -->
            <g transform="translate(60, 40)">
                <circle cx="0" cy="0" r="20" fill="rgba(255,255,255,0.9)"/>
                <path d="M0,-12 L2,-12 L3,-8 C4,-8 5,-8 6,-9 L10,-7 L10,-5 L7,-2 C7,-1 7,0 8,1 L10,5 L8,7 L4,5 C3,6 2,6 1,6 L-1,10 L-3,10 L-5,6 C-6,6 -7,5 -8,5 L-12,7 L-14,5 L-12,1 C-12,0 -13,-1 -13,-2 L-17,-4 L-17,-6 L-13,-8 C-13,-9 -12,-10 -12,-11 L-14,-15 L-12,-17 L-8,-15 C-7,-16 -6,-16 -5,-16 L-3,-20 L-1,-20 L0,-16 C1,-16 2,-16 3,-15 L7,-17 L9,-15 L7,-11 C7,-10 8,-9 8,-8 L12,-6 L12,-4 L8,-2 C8,-1 7,0 7,1 L9,5 L7,7 L3,5 C2,6 1,6 0,6 L-2,10 L-4,10 L-6,6 C-7,6 -8,5 -9,5 L-13,7 L-15,5 L-13,1 C-13,0 -14,-1 -14,-2 L-18,-4 L-18,-6 L-14,-8 C-14,-9 -13,-10 -13,-11 L-15,-15 L-13,-17 L-9,-15 C-8,-16 -7,-16 -6,-16 L-4,-20 L-2,-20 Z" fill="#446278" />
                <circle cx="0" cy="0" r="8" fill="#446278"/>
            </g>
            
            <text font-family="Arial, sans-serif" font-size="30" font-weight="bold" fill="#FFFFFF" x="200" y="50" text-anchor="middle">API Gateway</text>
        </g>
        
        <!-- Connecting Arrow -->
        <g transform="translate(450, 530)">
            <line x1="0" y1="0" x2="0" y2="60" stroke="rgba(255,255,255,0.7)" stroke-width="3" marker-end="url(#arrowhead)"/>
        </g>
        
        <!-- Core Services Layer -->
        <g transform="translate(125, 610)">
            <rect x="0" y="0" width="650" height="170" rx="20" fill="url(#coreLayerGradient)" filter="url(#boxShadow)"/>
            <text font-family="Arial, sans-serif" font-size="30" font-weight="bold" fill="#FFFFFF" x="325" y="45" text-anchor="middle">Core Services Layer</text>
            
            <!-- User Service -->
            <g transform="translate(75, 80)">
                <rect x="0" y="0" width="140" height="60" rx="12" fill="#FFFFFF" filter="url(#boxShadowSmall)"/>
                <text font-family="Arial, sans-serif" font-size="18" font-weight="bold" fill="#333342" x="70" y="37" text-anchor="middle">User Service</text>
            </g>
            
            <!-- Task Scheduler -->
            <g transform="translate(255, 80)">
                <rect x="0" y="0" width="140" height="60" rx="12" fill="#FFFFFF" filter="url(#boxShadowSmall)"/>
                <g transform="translate(30, 30)">
                    <circle cx="0" cy="0" r="15" fill="#546F8D"/>
                    <text font-family="Arial, sans-serif" font-size="18" font-weight="bold" fill="#FFFFFF" x="0" y="6" text-anchor="middle">$</text>
                </g>
                <text font-family="Arial, sans-serif" font-size="18" font-weight="bold" fill="#333342" x="80" y="37" text-anchor="middle">Task Scheduler</text>
            </g>
            
            <!-- Agent Registry -->
            <g transform="translate(435, 80)">
                <rect x="0" y="0" width="140" height="60" rx="12" fill="#FFFFFF" filter="url(#boxShadowSmall)"/>
                <g transform="translate(30, 30)">
                    <path d="M0,-12 L12,0 L0,12 L-12,0 Z" fill="#546F8D"/>
                    <path d="M0,-6 L6,0 L0,6 L-6,0 Z" fill="#FFFFFF"/>
                </g>
                <text font-family="Arial, sans-serif" font-size="18" font-weight="bold" fill="#333342" x="80" y="37" text-anchor="middle">Agent Registry</text>
            </g>
        </g>
        
        <!-- Connecting Arrow -->
        <g transform="translate(450, 780)">
            <line x1="0" y1="0" x2="0" y2="60" stroke="rgba(255,255,255,0.7)" stroke-width="3" marker-end="url(#arrowhead)"/>
        </g>
        
        <!-- Universal Agent Spawning System -->
        <g transform="translate(125, 860)">
            <rect x="0" y="0" width="650" height="170" rx="20" fill="url(#spawningLayerGradient)" filter="url(#boxShadow)"/>
            <text font-family="Arial, sans-serif" font-size="30" font-weight="bold" fill="#FFFFFF" x="325" y="45" text-anchor="middle">Universal Agent Spawning System</text>
            
            <!-- Blueprint Generator -->
            <g transform="translate(75, 80)">
                <rect x="0" y="0" width="140" height="60" rx="12" fill="#FFFFFF" filter="url(#boxShadowSmall)"/>
                <g transform="translate(30, 30)">
                    <rect x="-10" y="-10" width="20" height="20" rx="2" fill="#647B95"/>
                    <rect x="-7" y="-7" width="14" height="3" rx="1" fill="#FFFFFF"/>
                    <rect x="-7" y="-2" width="14" height="3" rx="1" fill="#FFFFFF"/>
                    <rect x="-7" y="3" width="14" height="3" rx="1" fill="#FFFFFF"/>
                </g>
                <text font-family="Arial, sans-serif" font-size="16" font-weight="bold" fill="#333342" x="80" y="30" text-anchor="middle">Blueprint</text>
                <text font-family="Arial, sans-serif" font-size="16" font-weight="bold" fill="#333342" x="80" y="48" text-anchor="middle">Generator</text>
            </g>
            
            <!-- Agent Container -->
            <g transform="translate(255, 80)">
                <rect x="0" y="0" width="140" height="60" rx="12" fill="#FFFFFF" filter="url(#boxShadowSmall)"/>
                <g transform="translate(30, 30)">
                    <circle cx="0" cy="-5" r="7" fill="#647B95"/>
                    <path d="M-8,5 C-8,-2 8,-2 8,5 L8,10 L-8,10 Z" fill="#647B95"/>
                </g>
                <text font-family="Arial, sans-serif" font-size="16" font-weight="bold" fill="#333342" x="80" y="30" text-anchor="middle">Agent</text>
                <text font-family="Arial, sans-serif" font-size="16" font-weight="bold" fill="#333342" x="80" y="48" text-anchor="middle">Container</text>
            </g>
            
            <!-- Security Boundary -->
            <g transform="translate(435, 80)">
                <rect x="0" y="0" width="140" height="60" rx="12" fill="#FFFFFF" filter="url(#boxShadowSmall)"/>
                <g transform="translate(30, 30)">
                    <path d="M0,-10 L10,0 L0,10 L-10,0 Z" fill="#647B95"/>
                    <path d="M0,-5 L5,0 L0,5 L-5,0 Z" fill="#FFFFFF"/>
                    <circle cx="0" cy="0" r="2" fill="#647B95"/>
                </g>
                <text font-family="Arial, sans-serif" font-size="16" font-weight="bold" fill="#333342" x="80" y="30" text-anchor="middle">Security</text>
                <text font-family="Arial, sans-serif" font-size="16" font-weight="bold" fill="#333342" x="80" y="48" text-anchor="middle">Boundary</text>
            </g>
        </g>
        
        <!-- Connecting Arrow -->
        <g transform="translate(450, 1030)">
            <line x1="0" y1="0" x2="0" y2="60" stroke="rgba(255,255,255,0.7)" stroke-width="3" marker-end="url(#arrowhead)"/>
        </g>
        
        <!-- Multi-Agent Orchestration -->
        <g transform="translate(125, 1110)">
            <rect x="0" y="0" width="650" height="70" rx="20" fill="url(#orchestrationLayerGradient)" filter="url(#boxShadow)"/>
            <text font-family="Arial, sans-serif" font-size="30" font-weight="bold" fill="#FFFFFF" x="325" y="45" text-anchor="middle">Multi-Agent Orchestration</text>
        </g>
    </g>
</svg>
